<svg xmlns="http://www.w3.org/2000/svg" viewBox="-1 -1 26 28" width="1040" height="1120" role="img" aria-label="scrin mark construction"><rect x="-1" y="-1" width="26" height="28" fill="#002327"/><line x1="0" y1="0" x2="0" y2="24" stroke="#5a7d80" stroke-width="0.06"/><line x1="0" y1="0" x2="24" y2="0" stroke="#5a7d80" stroke-width="0.06"/><line x1="1" y1="0" x2="1" y2="24" stroke="#5a7d80" stroke-width="0.025"/><line x1="0" y1="1" x2="24" y2="1" stroke="#5a7d80" stroke-width="0.025"/><line x1="2" y1="0" x2="2" y2="24" stroke="#5a7d80" stroke-width="0.025"/><line x1="0" y1="2" x2="24" y2="2" stroke="#5a7d80" stroke-width="0.025"/><line x1="3" y1="0" x2="3" y2="24" stroke="#5a7d80" stroke-width="0.025"/><line x1="0" y1="3" x2="24" y2="3" stroke="#5a7d80" stroke-width="0.025"/><line x1="4" y1="0" x2="4" y2="24" stroke="#5a7d80" stroke-width="0.06"/><line x1="0" y1="4" x2="24" y2="4" stroke="#5a7d80" stroke-width="0.06"/><line x1="5" y1="0" x2="5" y2="24" stroke="#5a7d80" stroke-width="0.025"/><line x1="0" y1="5" x2="24" y2="5" stroke="#5a7d80" stroke-width="0.025"/><line x1="6" y1="0" x2="6" y2="24" stroke="#5a7d80" stroke-width="0.025"/><line x1="0" y1="6" x2="24" y2="6" stroke="#5a7d80" stroke-width="0.025"/><line x1="7" y1="0" x2="7" y2="24" stroke="#5a7d80" stroke-width="0.025"/><line x1="0" y1="7" x2="24" y2="7" stroke="#5a7d80" stroke-width="0.025"/><line x1="8" y1="0" x2="8" y2="24" stroke="#5a7d80" stroke-width="0.06"/><line x1="0" y1="8" x2="24" y2="8" stroke="#5a7d80" stroke-width="0.06"/><line x1="9" y1="0" x2="9" y2="24" stroke="#5a7d80" stroke-width="0.025"/><line x1="0" y1="9" x2="24" y2="9" stroke="#5a7d80" stroke-width="0.025"/><line x1="10" y1="0" x2="10" y2="24" stroke="#5a7d80" stroke-width="0.025"/><line x1="0" y1="10" x2="24" y2="10" stroke="#5a7d80" stroke-width="0.025"/><line x1="11" y1="0" x2="11" y2="24" stroke="#5a7d80" stroke-width="0.025"/><line x1="0" y1="11" x2="24" y2="11" stroke="#5a7d80" stroke-width="0.025"/><line x1="12" y1="0" x2="12" y2="24" stroke="#5a7d80" stroke-width="0.06"/><line x1="0" y1="12" x2="24" y2="12" stroke="#5a7d80" stroke-width="0.06"/><line x1="13" y1="0" x2="13" y2="24" stroke="#5a7d80" stroke-width="0.025"/><line x1="0" y1="13" x2="24" y2="13" stroke="#5a7d80" stroke-width="0.025"/><line x1="14" y1="0" x2="14" y2="24" stroke="#5a7d80" stroke-width="0.025"/><line x1="0" y1="14" x2="24" y2="14" stroke="#5a7d80" stroke-width="0.025"/><line x1="15" y1="0" x2="15" y2="24" stroke="#5a7d80" stroke-width="0.025"/><line x1="0" y1="15" x2="24" y2="15" stroke="#5a7d80" stroke-width="0.025"/><line x1="16" y1="0" x2="16" y2="24" stroke="#5a7d80" stroke-width="0.06"/><line x1="0" y1="16" x2="24" y2="16" stroke="#5a7d80" stroke-width="0.06"/><line x1="17" y1="0" x2="17" y2="24" stroke="#5a7d80" stroke-width="0.025"/><line x1="0" y1="17" x2="24" y2="17" stroke="#5a7d80" stroke-width="0.025"/><line x1="18" y1="0" x2="18" y2="24" stroke="#5a7d80" stroke-width="0.025"/><line x1="0" y1="18" x2="24" y2="18" stroke="#5a7d80" stroke-width="0.025"/><line x1="19" y1="0" x2="19" y2="24" stroke="#5a7d80" stroke-width="0.025"/><line x1="0" y1="19" x2="24" y2="19" stroke="#5a7d80" stroke-width="0.025"/><line x1="20" y1="0" x2="20" y2="24" stroke="#5a7d80" stroke-width="0.06"/><line x1="0" y1="20" x2="24" y2="20" stroke="#5a7d80" stroke-width="0.06"/><line x1="21" y1="0" x2="21" y2="24" stroke="#5a7d80" stroke-width="0.025"/><line x1="0" y1="21" x2="24" y2="21" stroke="#5a7d80" stroke-width="0.025"/><line x1="22" y1="0" x2="22" y2="24" stroke="#5a7d80" stroke-width="0.025"/><line x1="0" y1="22" x2="24" y2="22" stroke="#5a7d80" stroke-width="0.025"/><line x1="23" y1="0" x2="23" y2="24" stroke="#5a7d80" stroke-width="0.025"/><line x1="0" y1="23" x2="24" y2="23" stroke="#5a7d80" stroke-width="0.025"/><line x1="24" y1="0" x2="24" y2="24" stroke="#5a7d80" stroke-width="0.06"/><line x1="0" y1="24" x2="24" y2="24" stroke="#5a7d80" stroke-width="0.06"/><rect x="6" y="4" width="12" height="16" fill="none" stroke="#e8c76a" stroke-width="0.08" stroke-dasharray="0.3 0.2"/><circle cx="12" cy="12" r="0.35" fill="#e8c76a"/><circle cx="12" cy="12" r="8" fill="none" stroke="#e8c76a" stroke-width="0.05"/><g fill="none" stroke-width="3" stroke-linejoin="round" opacity="0.9"><path d="M16.5 5.5H10.5A3 3 0 0 0 7.5 8.5V9A3 3 0 0 0 10.5 12H12.35" stroke="#edf8f5"/><path d="M12 12H13.5A3 3 0 0 1 16.5 15V15.5A3 3 0 0 1 13.5 18.5H7.5" stroke="#37e1c4"/></g><g fill="none" stroke="#e8c76a" stroke-width="0.06"><path d="M16.5 5.5H10.5A3 3 0 0 0 7.5 8.5V9A3 3 0 0 0 10.5 12H12.35"/><path d="M12 12H13.5A3 3 0 0 1 16.5 15V15.5A3 3 0 0 1 13.5 18.5H7.5"/></g><g font-family="Inter, sans-serif" font-size="0.62" fill="#e8c76a"><text x="0" y="25.6">24-unit grid · stroke 3 · bars y 5.5/12/18.5 · counters 3.5 (1:1.17) · r 3 · box 12x16 · 180° symmetric about (12,12)</text><text x="0" y="26.5">ivory half = you · lagoon half = them · seam at x 12 (ivory overlaps 0.35 under lagoon) · mono: 1-unit gap at the seam</text></g></svg>
